<?xml version="1.0" encoding="utf-8"?>
<svg width="381.40131" height="95.656395" id="svg2" version="1.1" xmlns="http://www.w3.org/2000/svg" xmlns:xlink="http://www.w3.org/1999/xlink">
  <defs id="defs4">
    <linearGradient id="linearGradient3804">
      <stop style="stop-color:#ffffff;stop-opacity:1;" offset="0" id="stop3806"/>
      <stop id="stop3812" offset="0.7328" style="stop-color:#ffffff;stop-opacity:1;"/>
      <stop style="stop-color:#ffffff;stop-opacity:0;" offset="1" id="stop3808"/>
    </linearGradient>
    <radialGradient id="radialGradient3810" cx="225.13776" cy="479.22687" r="9.2176418" gradientTransform="matrix(1,0,0,0.94520546,0,26.259014)" gradientUnits="userSpaceOnUse" xlink:href="#linearGradient3804"/>
  </defs>
  <g id="layer1" transform="translate(-188.5625,-442.53111)">
    <g id="g3130">
      <path id="path3009-4" d="m 278.28125,514.71875 -41.28516,-24 -42.24609,23 c 8.25643,14.59096 23.96187,24.46875 42.03125,24.46875 17.65614,0 33.10022,-9.42558 41.5,-23.46875 z" style="color: rgb(0, 0, 0); fill-opacity: 1; stroke: none; stroke-width: 1.26863; marker: none; visibility: visible; display: inline; overflow: visible; fill-rule: nonzero; fill: rgb(219, 219, 219);"/>
      <path id="path3009-4-7" d="m 237,442.53125 0,48.19141 41.28125,23.99609 C 282.54956,507.58278 285,499.27411 285,490.375 c 0,-26.33985 -21.47235,-47.72717 -48,-47.84375 z" style="color: rgb(0, 0, 0); fill-opacity: 1; stroke: none; stroke-width: 1.26863; marker: none; visibility: visible; display: inline; overflow: visible; fill: rgb(219, 219, 219);"/>
      <path id="path3009-4-70" d="m 236.78125,442.53125 c -26.62802,0 -48.21875,21.43172 -48.21875,47.84375 0,8.48921 2.27681,16.43268 6.1875,23.34375 l 42.24609,-23 0.004,-48.1875 c -0.0727,-3.2e-4 -0.14598,0 -0.21875,0 z" style="color: rgb(0, 0, 0); fill-opacity: 1; stroke: none; stroke-width: 1.26863; marker: none; visibility: visible; display: inline; overflow: visible; fill: rgb(219, 219, 219);"/>
      <path id="path2996" d="m 366.875,508.96932 17.14286,0 10.17857,-29.19642 25.89286,0 c 1.62865,2.4981 0.99015,4.88284 -2.14286,7.14285 l -17.76786,0 -2.5,8.39286 27.67857,0 c 13.41985,-7.09819 16.4626,-20.74949 7.76786,-24.55357 l -52.67857,0 z" style="fill-opacity: 1; stroke: none; fill: rgb(255, 255, 255);"/>
      <path id="path2998" d="m 307.41072,509.05861 44.73214,0 c 8.27655,-3.0947 11.38341,-12.29904 14.55357,-21.42857 l -24.19643,0 c -1.17475,1.646 -2.15718,3.38404 -2.14286,5.26786 l 9.28572,0 -2.85714,7.05357 -28.125,0 c -0.8631,-1.25 5.60717,-18.73186 7.05357,-20.08929 l 43.30357,0 3.75,-8.92857 -52.41072,0 c -7.71591,2.82158 -10.85541,10.00165 -13.66071,17.5 -1.22012,7.37977 -9.21816,17.10574 0.71429,20.625 z" style="fill-opacity: 1; stroke: none; fill: rgb(255, 255, 255);"/>
      <path id="path3000" d="m 434.10714,509.05861 50.98215,0 c 8.33805,-3.6563 14.56438,-8.96078 13.21428,-20.17857 5.93369,-7.06873 8.59721,-13.56649 -0.35714,-18.03572 l -50.625,0 -3.30357,9.10715 42.67857,0 c 0.10977,1.81749 0.73846,3.68686 -1.41426,5.2781 l -37.78217,0 -3.39286,7.75761 37.94643,0 c -0.0531,2.92221 -0.35334,5.63252 -2.05357,7.14286 l -42.32143,0 z" style="fill-opacity: 1; stroke: none; fill: rgb(255, 255, 255);"/>
      <path id="path3002" d="m 500.17857,508.96932 59.64286,0 2.41071,-8.39285 -42.58928,0 c -1.14769,-2.07336 0.91648,-5.02268 2.23214,-7.76786 l 36.16072,0 c 9.64993,-3.36984 17.25106,-15.87637 7.14285,-22.05357 l -49.64285,0 c -3.24364,1.18432 -3.66785,5.42197 -4.46429,9.28571 l 40.98214,0 c 2.12114,1.06988 0.69982,3.70432 -0.53571,4.82143 l -36.25,0 c -10.90488,5.35812 -12.12403,15.40696 -15.08929,24.10714 z" style="fill-opacity: 1; stroke: none; fill: rgb(255, 255, 255);"/>
      <path transform="matrix(1.0327103,0,0,1.0091743,-8.1083107,-5.7588932)" d="m 275.17857,491.46933 a 38.214287,38.92857 0 1 1 -76.42858,0 38.214287,38.92857 0 1 1 76.42858,0 z" id="path3009" style="color:#000000;fill:#000000;fill-opacity:1;fill-rule:nonzero;stroke:none;stroke-width:1.01900005;marker:none;visibility:visible;display:inline;overflow:visible;enable-background:accumulate"/>
      <path id="path3797" d="m 236.78125,455.03125 c -19.72446,0 -35.71875,15.75891 -35.71875,35.1875 0,19.42859 15.99429,35.1875 35.71875,35.1875 19.44823,0 35.27953,-15.32242 35.71875,-34.375 -6.01272,-0.0155 -12.37612,-0.0625 -18.6875,-0.0625 l -12.875,0 0,8.96875 12.15625,0 c -3.39834,5.56098 -9.5615,9.3125 -16.625,9.3125 -10.72517,0 -19.40625,-8.57901 -19.40625,-19.15625 0,-10.57724 8.68108,-19.15625 19.40625,-19.15625 7.90674,0 14.71539,4.65533 17.75,11.34375 l 17.34375,0 c -3.65779,-15.60038 -17.83184,-27.25 -34.78125,-27.25 z" style="color: rgb(0, 0, 0); fill-opacity: 1; stroke: rgb(0, 0, 0); stroke-width: 1.01769; stroke-opacity: 1; marker: none; visibility: visible; display: inline; overflow: visible; fill: rgb(255, 255, 255);"/>
      <path transform="matrix(0.72602739,0,0,0.75362318,61.934116,115.92382)" d="m 234.3554,479.22687 a 9.2176418,8.7125654 0 1 1 -18.43529,0 9.2176418,8.7125654 0 1 1 18.43529,0 z" id="path4004" style="color:#000000;fill:url(#radialGradient3810);fill-opacity:1;fill-rule:nonzero;stroke:none;stroke-width:1.01900005;marker:none;visibility:visible;display:inline;overflow:visible;enable-background:accumulate"/>
    </g>
  </g>
</svg>