<?xml version="1.0" encoding="UTF-8" standalone="no"?>
<svg
   height="183.47061"
   viewBox="0 0 566.9295 183.47061"
   width="566.9295"
   version="1.1"
   id="svg3183"
   xmlns="http://www.w3.org/2000/svg"
   xmlns:svg="http://www.w3.org/2000/svg">
  <defs
     id="defs3187" />
  <g
     fill="#1747ce"
     id="g3161"
     transform="matrix(0.37779196,0,0,0.36594239,163.6654,-6.485698)"
     style="stroke-width:5.37894;fill:#ffffff;fill-opacity:1">
    <path
       d="m 154.07,81.252 h 21.377 v -47.5 h -14.463 v 27.237 h -0.125 l -9.536,-27.237 h -21.375 v 47.5 h 14.455 V 53.834 h 0.13 z"
       id="path3133"
       style="fill:#ffffff;fill-opacity:1" />
    <path
       d="m 234.714,81.252 h 21.375 v -47.5 h -14.453 v 27.237 h -0.131 l -9.537,-27.237 h -21.373 v 47.5 h 14.461 V 53.834 h 0.125 z"
       id="path3135"
       style="fill:#ffffff;fill-opacity:1" />
    <path
       d="m 373.578,81.252 h 21.379 v -47.5 h -14.459 v 27.237 h -0.129 l -9.536,-27.237 h -21.376 v 47.5 h 14.457 V 53.834 h 0.127 z"
       id="path3137"
       style="fill:#ffffff;fill-opacity:1" />
    <path
       d="m 184.179,33.752 h 17.83 v 47.5 h -17.83 z"
       id="path3139"
       style="fill:#ffffff;fill-opacity:1" />
    <path
       d="m 272.591,46.655 h -11.33 V 33.752 h 40.524 v 12.903 h -11.369 v 34.597 h -17.825 z"
       id="path3141"
       style="fill:#ffffff;fill-opacity:1" />
    <path
       d="m 324.597,68.777 h 18.278 V 81.236 H 307.05 V 33.739 h 35.26 v 12.564 h -17.713 v 4.967 h 16.309 v 12.178 h -16.309 z"
       id="path3143"
       style="fill:#ffffff;fill-opacity:1" />
    <path
       d="m 402.63,33.752 h 21.123 c 18.016,0 23.75,10.197 23.75,24.275 0,14.343 -8.848,23.226 -22.684,23.226 H 402.63 Z m 17.453,36.707 h 1.738 c 2.867,0 4.789,-0.879 5.912,-2.787 1.184,-1.975 1.316,-5.572 1.316,-10.172 0,-4.604 -0.135,-8.194 -1.316,-10.172 -1.123,-1.91 -3.045,-2.789 -5.912,-2.789 h -1.738 z"
       id="path3145"
       style="fill:#ffffff;fill-opacity:1" />
    <path
       d="m 475.451,32.506 c 15.521,0 23.244,10.193 23.244,24.995 0,14.806 -7.725,25.002 -23.244,25.002 -15.523,0 -23.246,-10.196 -23.246,-25.002 0,-14.802 7.72,-24.995 23.246,-24.995 z m 0,37.959 c 2.738,0 4.801,-1.346 4.801,-12.965 0,-11.357 -1.939,-12.961 -4.801,-12.961 -2.865,0 -4.801,1.604 -4.801,12.961 0,11.62 2.058,12.965 4.801,12.965 z"
       id="path3147"
       style="fill:#ffffff;fill-opacity:1" />
    <path
       d="m 129.948,81.252 h 14.455 V 53.834 h 0.13 l 9.537,27.418 h 21.377 v -47.5 h -14.463 v 27.237 h -0.125 l -9.536,-27.237 h -21.375 z"
       id="path3149"
       style="fill:#ffffff;fill-opacity:1" />
    <path
       d="m 210.595,81.252 h 14.461 V 53.834 h 0.125 l 9.533,27.418 h 21.375 v -47.5 h -14.453 v 27.237 h -0.131 l -9.537,-27.237 h -21.373 z"
       id="path3151"
       style="fill:#ffffff;fill-opacity:1" />
    <path
       d="m 349.457,81.252 h 14.457 V 53.834 h 0.127 l 9.537,27.418 h 21.379 v -47.5 h -14.459 v 27.237 h -0.129 l -9.536,-27.237 h -21.376 z"
       id="path3153"
       style="fill:#ffffff;fill-opacity:1" />
    <path
       d="m 184.179,33.752 h 17.83 v 47.5 h -17.83 z"
       id="path3155"
       style="fill:#ffffff;fill-opacity:1" />
    <path
       d="M 301.785,46.655 H 290.416 V 81.252 H 272.591 V 46.655 h -11.33 V 33.752 h 40.524 z"
       id="path3157"
       style="fill:#ffffff;fill-opacity:1" />
    <path
       d="m 324.597,68.777 h 18.278 V 81.236 H 307.05 V 33.739 h 35.26 v 12.564 h -17.713 v 4.967 h 16.309 v 12.178 h -16.309 z"
       id="path3159"
       style="fill:#ffffff;fill-opacity:1" />
  </g>
  <path
     d="m 364.11539,3.5542974 c -0.35852,-0.030373 -0.70685,-0.016101 -1.19307,0.00512 -2.84137,0.127348 -3.99061,1.3001933 -4.38012,2.6252707 h 0.0688 c 0.70761,-0.5990477 1.5822,-0.8786277 2.75373,-0.8786277 2.25353,0 4.31212,1.5874581 4.31212,4.5654973 0,2.8495933 -2.26147,5.0690343 -5.29665,5.0690343 -3.99855,0 -5.7379,-2.957912 -5.7379,-6.1295354 0,-2.5766003 0.94372,-4.7587148 2.49267,-6.1661292 1.47414,-1.3228818 3.37519,-1.99109257 5.70164,-2.04269045 0.61617,-0.0343986 0.98225,0 1.27882,0.0259819 z m -3.78585,8.5835446 c 0.92143,0 1.48019,-0.911562 1.48019,-2.075991 -0.008,-0.9829213 -0.47224,-2.0540347 -1.70762,-2.0540347 -0.75483,0 -1.34305,0.4632831 -1.56519,1.022809 -0.0865,0.171627 -0.11863,0.4160765 -0.11863,0.8306892 0.079,1.1106355 0.63167,2.2768935 1.8882,2.2768935 z"
     fill="#cc130e"
     id="path3163"
     style="stroke-width:2;fill:#ffffff;fill-opacity:1" />
  <path
     d="m 372.72225,14.706392 v -3.119293 h -5.98649 V 9.0946652 l 4.80664,-8.29627993 h 4.78285 V 8.7294547 h 1.52137 v 2.8576443 h -1.52137 v 3.119293 z m 0,-5.9769373 V 6.3394849 c 0,-0.8833849 0.0548,-1.8011684 0.10125,-2.7683541 h -0.0782 c -0.44504,0.9386422 -0.83227,1.8322735 -1.33851,2.8020208 l -1.17607,2.3149516 -0.0125,0.042083 z"
     fill="#cc130e"
     id="path3165"
     style="stroke-width:2;fill:#ffffff;fill-opacity:1" />
  <path
     d="m 285.19318,34.65828 c -2.35615,-0.165393 -5.38548,-0.496177 -10.26609,-0.165393 -18.3443,0.330785 -33.32268,5.623336 -45.10343,15.712262 -12.11735,10.915887 -19.69069,27.785895 -19.69069,47.632965 0,24.643436 13.80031,47.467566 45.44003,47.467566 24.0664,0 41.90582,-17.20079 41.90582,-39.19795 0,-22.989527 -16.32476,-35.228552 -34.16418,-35.228552 -9.2563,0 -16.15646,2.150099 -21.71023,6.781081 h -0.50489 c 3.02933,-10.254318 12.11734,-19.35089 34.50077,-20.343244 3.87081,-0.165392 6.73185,-0.165392 9.59289,0 z m -30.12506,88.98102 c -9.92949,0 -14.3052,-8.93118 -14.97838,-17.69697 0,-3.14245 0.1683,-4.96177 0.84148,-6.2849 1.85127,-4.465594 6.56356,-7.938833 12.45394,-7.938833 9.76118,0 13.46371,8.269612 13.46371,15.877653 0,9.09658 -4.37571,16.04305 -11.61245,16.04305 z"
     id="path3169"
     style="fill:#fdfffb;stroke-width:1.00157" />
  <path
     d="m 362.82516,142.85075 v -24.26292 h 12.11733 V 96.319117 H 362.82516 V 34.830885 H 324.7902 l -38.03495,64.313368 v 19.443577 h 47.45955 v 24.26292 z m -48.46932,-46.531633 0.16829,-0.332365 9.25629,-17.947921 c 4.03912,-7.478299 7.06845,-14.458044 10.60267,-21.770158 h 0.67318 c -0.33658,7.644483 -0.84147,14.624228 -0.84147,21.603973 v 18.446471 z"
     id="path3171"
     style="fill:#fdfffb;stroke-width:1.00157" />
  <g
     transform="matrix(0.95487464,0,0,1.0472579,-33.488207,-16.007093)"
     id="g3177"
     style="fill:#fdfffb;stroke-width:1.00157">
    <path
       d="M 564.39675,129.18921 V 71.735471 c 1.32927,-0.147696 2.65853,-0.147696 3.8401,-0.147696 13.29264,0 18.01891,8.418672 18.01891,28.357632 0,20.529743 -5.02166,29.391503 -19.34818,29.391503 -0.73848,0 -1.62465,-0.1477 -2.51083,-0.1477 z m -41.05949,24.81293 h 47.85351 c 38.25326,0 57.60144,-18.16661 57.60144,-53.76134 0,-35.890129 -18.75739,-52.727473 -57.89683,-52.727473 h -47.55812 z"
       id="path3173" />
    <path
       d="M 468.04916,129.18921 V 71.735471 c 1.32926,-0.147696 2.65852,-0.147696 3.84009,-0.147696 13.29264,0 18.01891,8.418672 18.01891,28.357632 0,20.529743 -5.02166,29.391503 -19.34817,29.391503 -0.73848,0 -1.62466,-0.1477 -2.51083,-0.1477 z m -41.05949,24.81293 h 47.8535 c 38.25327,0 57.60144,-18.16661 57.60144,-53.76134 0,-35.890129 -18.75739,-52.727473 -57.89683,-52.727473 h -47.55811 z"
       id="path3175" />
  </g>
  <g
     id="g8492"
     transform="matrix(0.13705614,0,0,0.12625231,-68.558537,-66.081807)">
			<g
   id="layer2_51_">
				<g
   id="polygon3542_51_">
					<polygon
   class="st5"
   points="1402.3,987.2 1444.4,939.9 1444.4,618.2 1244.7,695.7 1079.7,990.2 1244.7,926.9 "
   id="polygon8428"
   style="fill:#ffffff" />

					<path
   d="m 1079.7,999.7 c -2.7,0 -5.3,-1.2 -7.2,-3.3 -2.6,-3 -3.1,-7.4 -1.1,-10.9 l 165,-294.5 c 1.1,-1.9 2.8,-3.4 4.9,-4.2 L 1441,609.4 c 2.9,-1.1 6.2,-0.8 8.8,1 2.6,1.8 4.1,4.7 4.1,7.8 v 321.7 c 0,2.3 -0.9,4.6 -2.4,6.3 l -42.2,47.3 c -2.6,2.9 -6.8,4 -10.5,2.6 l -154.1,-59 -161.6,61.9 c -1.1,0.5 -2.2,0.7 -3.4,0.7 z m 165,-82.3 c 1.2,0 2.3,0.2 3.4,0.6 l 151.4,58 35.4,-39.7 V 632.1 l -183.6,71.2 -150.5,268.6 140.5,-53.8 c 1.1,-0.5 2.3,-0.7 3.4,-0.7 z"
   id="path8430" />

				</g>

				<g
   id="polygon3558_51_">
					<polygon
   class="st5"
   points="1459.3,1009.1 1757.4,1435.1 1757.4,893.5 1960.1,815.4 1960.1,1668.6 1757.4,1753.8 1459.3,1364.8 1459.3,1879.1 1244.7,1969.9 1244.7,1091.3 "
   id="polygon8433"
   style="fill:#ffffff" />

					<path
   d="m 1244.7,1979.4 c -1.8,0 -3.7,-0.5 -5.2,-1.6 -2.7,-1.8 -4.3,-4.7 -4.3,-7.9 v -878.5 c 0,-3.9 2.4,-7.5 6.1,-8.9 l 214.6,-82.2 c 4.1,-1.6 8.7,-0.1 11.2,3.4 L 1747.9,1405 V 893.5 c 0,-3.9 2.4,-7.5 6.1,-8.9 l 202.7,-78.2 c 2.9,-1.1 6.2,-0.7 8.8,1 2.6,1.8 4.1,4.7 4.1,7.8 v 853.3 c 0,3.8 -2.3,7.3 -5.8,8.8 l -202.7,85.1 c -4,1.7 -8.6,0.4 -11.2,-3 l -281,-366.7 V 1879 c 0,3.8 -2.3,7.3 -5.8,8.7 l -214.6,90.8 c -1.2,0.6 -2.5,0.9 -3.8,0.9 z m 9.5,-881.5 v 857.7 l 195.6,-82.8 v -508 c 0,-4.1 2.6,-7.7 6.4,-9 3.9,-1.3 8.1,0 10.6,3.2 l 293.6,383.2 190.1,-79.8 V 829.2 L 1766.9,900 v 535.1 c 0,4.1 -2.7,7.8 -6.6,9.1 -4,1.2 -8.3,-0.2 -10.6,-3.6 l -293.8,-419.9 z"
   id="path8435" />

				</g>

				<g
   id="polygon3560_51_">
					<polygon
   class="st5"
   points="732.1,1753.8 922.2,1669.6 732.1,1300.4 "
   id="polygon8438"
   style="fill:#ffffff" />

					<path
   d="m 732.1,1763.3 c -1.8,0 -3.6,-0.5 -5.2,-1.5 -2.7,-1.8 -4.3,-4.7 -4.3,-8 v -453.4 c 0,-4.4 3,-8.2 7.3,-9.2 4.3,-1 8.7,1 10.7,4.9 l 190.2,369.2 c 1.2,2.3 1.4,5 0.5,7.5 -0.9,2.5 -2.7,4.5 -5.1,5.5 L 736,1762.5 c -1.3,0.5 -2.6,0.8 -3.9,0.8 z m 9.5,-423.7 v 399.6 L 909.2,1665 Z"
   id="path8440" />

				</g>

			</g>

			<g
   id="layer3_51_">
				<g
   id="polygon3538_51_">
					<polygon
   class="st5"
   points="934.7,815.4 1030.1,1009.1 1079.7,990.2 1244.7,695.7 1045,618 "
   id="polygon8444"
   style="fill:#ffffff" />

					<path
   d="m 1030.1,1018.6 c -3.5,0 -6.9,-2 -8.5,-5.3 L 926.2,819.5 c -1.4,-2.8 -1.3,-6.1 0.2,-8.8 l 110.3,-197.4 c 2.3,-4.1 7.3,-5.9 11.7,-4.2 l 199.7,77.7 c 2.6,1 4.6,3.1 5.5,5.6 0.9,2.6 0.7,5.5 -0.7,7.9 l -165,294.5 c -1.1,1.9 -2.8,3.4 -4.9,4.2 l -49.6,19 c -1,0.4 -2.1,0.6 -3.3,0.6 z m -84.6,-203 89.4,181.5 38.3,-14.6 158,-282 -181.8,-70.7 z"
   id="path8446" />

				</g>

				<g
   id="polygon3540_51_">
					<polygon
   class="st5"
   points="1402.3,987.2 1554.8,815.4 1757.4,893.5 1757.4,1435.1 1459.3,1009.1 "
   id="polygon8449"
   style="fill:#ffffff" />

					<path
   d="m 1757.4,1444.6 c -3,0 -6,-1.5 -7.8,-4.1 L 1453.2,1017 1398.8,996.1 c -2.9,-1.1 -5.1,-3.6 -5.8,-6.6 -0.7,-3 0.1,-6.2 2.1,-8.6 L 1547.6,809 c 2.6,-3 6.8,-4 10.5,-2.6 l 202.6,78.2 c 3.7,1.4 6.1,4.9 6.1,8.9 v 541.6 c 0,4.1 -2.7,7.8 -6.6,9.1 -0.9,0.3 -1.9,0.4 -2.8,0.4 z m -338.9,-461.3 44.3,17 c 1.8,0.7 3.3,1.9 4.4,3.4 L 1748,1405 V 900 l -190.4,-73.5 z"
   id="path8451" />

				</g>

				<g
   id="polygon3552_51_">
					<polygon
   class="st5"
   points="1030.1,1879.1 1244.7,1969.9 1244.7,1091.3 1030.1,1009.1 1030.1,1455.1 732.1,893.5 529.4,815.4 529.4,1668.6 732.1,1753.8 732.1,1300.4 "
   id="polygon8454"
   style="fill:#ffffff" />

					<path
   d="m 1244.7,1979.4 c -1.3,0 -2.5,-0.2 -3.7,-0.8 l -214.6,-90.8 c -2,-0.9 -3.7,-2.4 -4.7,-4.4 L 741.6,1339.5 v 414.2 c 0,3.2 -1.6,6.2 -4.2,7.9 -2.6,1.8 -6,2.1 -8.9,0.8 l -202.7,-85.1 c -3.5,-1.5 -5.8,-4.9 -5.8,-8.8 V 815.4 c 0,-3.1 1.5,-6.1 4.1,-7.8 2.6,-1.8 5.9,-2.2 8.8,-1 l 202.7,78.2 c 2.1,0.8 3.9,2.4 5,4.4 l 280.2,527.9 v -407.8 c 0,-3.1 1.5,-6.1 4.1,-7.8 2.6,-1.8 5.9,-2.2 8.8,-1 l 214.6,82.2 c 3.7,1.4 6.1,4.9 6.1,8.9 v 878.5 c 0,3.2 -1.6,6.2 -4.3,7.9 -1.7,0.8 -3.5,1.4 -5.4,1.4 z m -207.7,-107.7 198.2,83.9 V 1097.9 L 1039.6,1023 v 432.2 c 0,4.4 -3,8.2 -7.2,9.2 -4.2,1.1 -8.6,-0.9 -10.7,-4.8 L 725.3,901.1 538.8,829.2 v 833.1 l 183.7,77.1 v -439.1 c 0,-4.4 3,-8.2 7.3,-9.2 4.3,-1 8.7,1 10.7,4.9 z"
   id="path8456" />

				</g>

			</g>

			<g
   id="layer4_51_">
				<g
   id="polygon3554_51_">
					<polygon
   class="st5"
   points="934.7,815.4 1030.1,1009.1 1030.1,1455.1 732.1,893.5 "
   id="polygon8460"
   style="fill:#ffffff" />

					<path
   d="m 1030.1,1464.6 c -3.5,0 -6.7,-1.9 -8.4,-5 L 723.7,898 c -1.3,-2.4 -1.5,-5.2 -0.5,-7.8 1,-2.5 2.9,-4.6 5.5,-5.5 l 202.7,-78.2 c 4.6,-1.8 9.8,0.3 11.9,4.7 l 95.4,193.8 c 0.6,1.3 1,2.7 1,4.2 v 446 c 0,4.4 -3,8.2 -7.2,9.2 -0.8,0.1 -1.6,0.2 -2.4,0.2 z m -284.6,-566.1 275.2,518.4 v -405.6 l -90.6,-184 z"
   id="path8462" />

				</g>

				<g
   id="polygon3556_51_">
					<polygon
   class="st5"
   points="1520.2,1662.7 1757.4,1753.8 1459.3,1364.8 1459.3,1577.3 "
   id="polygon8465"
   style="fill:#ffffff" />

					<path
   d="m 1757.4,1763.3 c -1.1,0 -2.3,-0.2 -3.4,-0.6 l -237.2,-91.1 c -1.7,-0.7 -3.2,-1.8 -4.3,-3.4 l -60.9,-85.4 c -1.1,-1.6 -1.8,-3.5 -1.8,-5.5 v -212.5 c 0,-4.1 2.6,-7.7 6.4,-9 3.9,-1.3 8.1,0 10.6,3.2 l 298,389 c 2.6,3.4 2.6,8.1 0.1,11.5 -1.7,2.4 -4.6,3.8 -7.5,3.8 z m -231.1,-108.5 203.1,78 -260.5,-340 v 181.4 z"
   id="path8467" />

				</g>

			</g>

			<g
   id="layer5_51_">
				<g
   id="polygon3544_51_">
					<polygon
   class="st5"
   points="1244.7,926.9 1459.3,1009.1 1244.7,1091.3 1030.1,1009.1 "
   id="polygon8471"
   style="fill:#ffffff" />

					<path
   d="m 1244.7,1100.8 c -1.2,0 -2.3,-0.2 -3.4,-0.6 L 1026.7,1018 c -3.7,-1.4 -6.1,-4.9 -6.1,-8.9 0,-4 2.4,-7.5 6.1,-8.9 L 1241.3,918 c 2.2,-0.8 4.6,-0.8 6.8,0 l 214.6,82.2 c 3.7,1.4 6.1,4.9 6.1,8.9 0,4 -2.4,7.5 -6.1,8.9 l -214.6,82.2 c -1.1,0.4 -2.2,0.6 -3.4,0.6 z m -188,-91.7 188,72 188,-72 -188,-72 z"
   id="path8473" />

				</g>

				<g
   id="polygon3546_51_">
					<polygon
   class="st5"
   points="1757.4,893.5 1554.7,815.4 1757.4,737.4 1960.1,815.4 "
   id="polygon8476"
   style="fill:#ffffff" />

					<path
   d="m 1757.4,903 c -1.2,0 -2.3,-0.2 -3.4,-0.6 l -202.7,-78.2 c -3.7,-1.4 -6.1,-4.9 -6.1,-8.9 0,-3.9 2.4,-7.5 6.1,-8.9 l 202.7,-78 c 2.2,-0.8 4.6,-0.8 6.8,0 l 202.7,78 c 3.7,1.4 6.1,4.9 6.1,8.9 0,3.9 -2.4,7.5 -6.1,8.9 l -202.7,78.2 c -1.1,0.4 -2.2,0.6 -3.4,0.6 z m -176.3,-87.6 176.3,68 176.3,-68 -176.3,-67.8 z"
   id="path8478" />

				</g>

				<g
   id="polygon3548_51_">
					<polygon
   class="st5"
   points="732.1,893.5 529.4,815.4 732.1,737.4 934.7,815.4 "
   id="polygon8481"
   style="fill:#ffffff" />

					<path
   d="m 732.1,903 c -1.2,0 -2.3,-0.2 -3.4,-0.6 L 526,824.2 c -3.7,-1.4 -6.1,-4.9 -6.1,-8.9 0,-3.9 2.4,-7.5 6.1,-8.9 l 202.7,-78 c 2.2,-0.8 4.6,-0.8 6.8,0 l 202.7,78 c 3.7,1.4 6.1,4.9 6.1,8.9 0,3.9 -2.4,7.5 -6.1,8.9 l -202.7,78.2 c -1.1,0.4 -2.3,0.6 -3.4,0.6 z m -176.3,-87.6 176.3,68 176.3,-68 -176.3,-67.8 z"
   id="path8483" />

				</g>

				<g
   id="polygon3550_51_">
					<polygon
   class="st5"
   points="1244.7,695.7 1444.4,618.2 1244.7,541.1 1045,618 "
   id="polygon8486"
   style="fill:#ffffff" />

					<path
   d="m 1244.7,705.2 c -1.2,0 -2.3,-0.2 -3.4,-0.6 l -199.7,-77.7 c -3.7,-1.4 -6.1,-4.9 -6.1,-8.9 0,-3.9 2.4,-7.4 6.1,-8.8 l 199.7,-76.9 c 2.2,-0.8 4.6,-0.8 6.8,0 l 199.7,77.1 c 3.7,1.4 6.1,4.9 6.1,8.9 0,3.9 -2.4,7.4 -6.1,8.9 l -199.7,77.4 c -1,0.4 -2.2,0.6 -3.4,0.6 z m -173.3,-87.2 173.4,67.5 173.4,-67.2 -173.4,-67 z"
   id="path8488" />

				</g>

			</g>

		</g>
</svg>
