<?xml version="1.0" encoding="utf-8"?>
<svg viewBox="0 0 347.869 102.59" version="1.1" id="svg110" xmlns="http://www.w3.org/2000/svg">
  <g id="g4" style="fill:#040006" transform="matrix(0.878313, 0, 0, 0.773136, 2.620322, 11.749503)">
    <path d="m 276.662,27.554 h -44.959 a 0.284,0.284 0 0 0 -0.277,0.225 l -9.38,44.267 a 0.283,0.283 0 0 0 0.277,0.342 h 44.959 a 0.284,0.284 0 0 0 0.277,-0.225 l 9.38,-44.267 a 0.283,0.283 0 0 0 -0.277,-0.342 z M 256.5,61.666 a 0.28,0.28 0 0 1 -0.273,0.222 h -18.4 a 0.279,0.279 0 0 1 -0.273,-0.337 l 4.932,-23.274 a 0.28,0.28 0 0 1 0.273,-0.222 h 18.4 c 0.178,0 0.31,0.164 0.273,0.337 z m -33.227,-29.101 -5.087,-4.93 a 0.29,0.29 0 0 0 -0.201,-0.081 h -38.714 a 0.288,0.288 0 0 0 -0.282,0.229 l -9.378,44.257 a 0.288,0.288 0 0 0 0.282,0.348 h 38.616 c 0.06,0 0.118,-0.019 0.167,-0.054 l 7.338,-5.231 a 0.287,0.287 0 0 0 0.115,-0.175 l 2.584,-12.193 a 0.288,0.288 0 0 0 -0.081,-0.267 l -5.29,-5.127 a 0.29,0.29 0 0 1 0.033,-0.442 l 7.653,-5.455 a 0.287,0.287 0 0 0 0.115,-0.175 l 2.212,-10.438 a 0.287,0.287 0 0 0 -0.082,-0.266 z m -19.419,29.093 a 0.289,0.289 0 0 1 -0.282,0.229 h -18.734 a 0.288,0.288 0 0 1 -0.282,-0.349 l 1.306,-6.14 a 0.288,0.288 0 0 1 0.282,-0.228 h 18.726 c 0.183,0 0.32,0.169 0.282,0.348 z m 3.627,-17.116 a 0.289,0.289 0 0 1 -0.282,0.229 h -18.734 a 0.289,0.289 0 0 1 -0.282,-0.349 l 1.306,-6.14 a 0.288,0.288 0 0 1 0.282,-0.228 h 18.726 c 0.183,0 0.32,0.169 0.282,0.348 z M 51.284,52.35 47.085,72.165 a 0.28,0.28 0 0 1 -0.274,0.222 H 1.552 A 0.28,0.28 0 0 1 1.278,72.048 l 9.381,-44.272 a 0.28,0.28 0 0 1 0.274,-0.222 h 12.843 a 0.28,0.28 0 0 1 0.274,0.339 l -7.13,33.651 a 0.28,0.28 0 0 0 0.274,0.339 H 35.62 a 0.28,0.28 0 0 0 0.274,-0.222 l 7.18,-33.883 a 0.28,0.28 0 0 1 0.274,-0.222 h 12.843 a 0.28,0.28 0 0 1 0.274,0.339 l -2.69,12.694 a 0.28,0.28 0 0 0 0.392,0.313 l 84.59,-38.873 c 0.266,-0.122 0.518,0.194 0.34,0.426 l -48.702,63.45 c -0.178,0.232 0.074,0.548 0.34,0.426 l 30.373,-13.957 a 0.278,0.278 0 0 0 0.157,-0.197 l 5.17,-24.4 a 0.28,0.28 0 0 1 0.274,-0.222 h 44.611 a 0.28,0.28 0 0 1 0.274,0.339 l -2.106,9.939 a 0.28,0.28 0 0 1 -0.274,0.222 h -31.456 a 0.28,0.28 0 0 0 -0.274,0.222 l -1.304,6.156 a 0.28,0.28 0 0 0 0.274,0.339 h 20.307 a 0.28,0.28 0 0 1 0.274,0.339 l -2.085,9.839 a 0.28,0.28 0 0 1 -0.274,0.222 h -20.545 a 0.28,0.28 0 0 0 -0.274,0.222 l -1.304,6.156 a 0.28,0.28 0 0 0 0.274,0.339 h 31.218 a 0.28,0.28 0 0 1 0.274,0.339 l -2.106,9.939 a 0.28,0.28 0 0 1 -0.274,0.222 h -44.611 a 0.28,0.28 0 0 1 -0.274,-0.339 l 1.717,-8.103 a 0.28,0.28 0 0 0 -0.392,-0.313 L 33.65,102.565 c -0.263,0.121 -0.513,-0.192 -0.336,-0.421 l 48.71,-63.461 c 0.178,-0.232 -0.074,-0.548 -0.34,-0.426 L 51.442,52.153 a 0.282,0.282 0 0 0 -0.158,0.197 z m 222.245,19.689 1.215,-5.733 a 0.288,0.288 0 0 1 0.083,-0.149 l 16.838,-16.023 a 0.29,0.29 0 0 0 0.046,-0.362 l -9.983,-16.037 a 0.287,0.287 0 0 1 -0.037,-0.212 l 1.216,-5.738 a 0.29,0.29 0 0 1 0.283,-0.229 h 13.044 a 0.29,0.29 0 0 1 0.245,0.135 l 6.828,10.889 a 0.289,0.289 0 0 0 0.444,0.056 l 11.56,-11 a 0.29,0.29 0 0 1 0.199,-0.08 h 12.966 a 0.29,0.29 0 0 1 0.283,0.349 l -1.196,5.645 a 0.288,0.288 0 0 1 -0.083,0.149 l -16.86,16.109 a 0.288,0.288 0 0 0 -0.045,0.362 l 10.001,15.948 a 0.29,0.29 0 0 1 0.038,0.213 l -1.235,5.826 a 0.29,0.29 0 0 1 -0.283,0.229 h -13.044 a 0.29,0.29 0 0 1 -0.245,-0.135 l -6.828,-10.889 a 0.289,0.289 0 0 0 -0.444,-0.056 l -11.56,11 a 0.29,0.29 0 0 1 -0.199,0.08 H 273.81 a 0.287,0.287 0 0 1 -0.281,-0.347 z" id="path2" style="fill: rgb(255, 255, 255);"/>
  </g>
  <path d="M 242.743 29.96 L 203.255 29.96 C 203.138 29.96 203.036 30.033 203.012 30.134 L 194.773 64.358 C 194.74 64.494 194.858 64.623 195.017 64.623 L 234.505 64.623 C 234.622 64.622 234.724 64.55 234.748 64.449 L 242.987 30.224 C 243.02 30.088 242.902 29.96 242.743 29.96 L 242.743 29.96 Z M 225.035 56.333 C 225.011 56.433 224.911 56.504 224.795 56.505 L 208.634 56.505 C 208.478 56.505 208.362 56.378 208.394 56.244 L 212.726 38.25 C 212.75 38.15 212.85 38.079 212.966 38.079 L 229.127 38.079 C 229.283 38.079 229.399 38.205 229.367 38.339 L 225.035 56.333 Z" id="path29" style="fill-opacity: 1; stroke: rgb(0, 0, 0); stroke-width: 0.412024; stroke-miterlimit: 4; stroke-dasharray: none; stroke-opacity: 1; fill: rgb(255, 255, 255);"/>
  <path d="M 195.851 33.834 L 191.383 30.023 C 191.336 29.982 191.272 29.96 191.207 29.96 L 157.203 29.96 C 157.084 29.96 156.98 30.034 156.956 30.137 L 148.719 64.354 C 148.685 64.492 148.806 64.623 148.967 64.623 L 182.884 64.623 C 182.936 64.623 182.987 64.608 183.03 64.581 L 189.475 60.537 C 189.527 60.504 189.563 60.456 189.576 60.401 L 191.846 50.975 C 191.864 50.9 191.837 50.822 191.775 50.768 L 187.129 46.804 C 187.016 46.707 187.03 46.544 187.158 46.463 L 193.879 42.245 C 193.931 42.213 193.967 42.164 193.98 42.11 L 195.923 34.04 C 195.941 33.965 195.914 33.887 195.851 33.834 L 195.851 33.834 Z M 178.795 56.327 C 178.77 56.43 178.667 56.504 178.547 56.504 L 162.093 56.504 C 161.932 56.504 161.811 56.373 161.845 56.234 L 162.992 51.487 C 163.017 51.384 163.121 51.311 163.24 51.311 L 179.687 51.311 C 179.848 51.311 179.968 51.442 179.935 51.58 L 178.795 56.327 Z M 181.981 43.094 C 181.956 43.197 181.853 43.271 181.733 43.271 L 165.279 43.271 C 165.118 43.271 164.998 43.14 165.031 43.001 L 166.178 38.254 C 166.203 38.151 166.306 38.078 166.426 38.078 L 182.873 38.078 C 183.034 38.078 183.154 38.209 183.121 38.347 L 181.981 43.094 Z" id="path54" style="fill-opacity: 1; stroke: rgb(0, 0, 0); stroke-width: 0.412024; stroke-miterlimit: 4; stroke-dasharray: none; stroke-opacity: 1; fill: rgb(255, 255, 255);"/>
  <path d="M 44.792 49.131 L 41.104 64.45 C 41.08 64.55 40.979 64.622 40.863 64.622 L 1.111 64.622 C 0.954 64.622 0.837 64.495 0.87 64.36 L 9.109 30.132 C 9.133 30.031 9.234 29.96 9.35 29.96 L 20.63 29.96 C 20.787 29.96 20.904 30.087 20.871 30.222 L 14.608 56.239 C 14.575 56.374 14.692 56.501 14.849 56.501 L 31.034 56.501 C 31.15 56.501 31.25 56.429 31.274 56.329 L 37.581 30.133 C 37.605 30.033 37.705 29.961 37.821 29.961 L 49.102 29.961 C 49.258 29.961 49.375 30.089 49.342 30.224 L 46.98 40.038 C 46.939 40.201 47.115 40.341 47.295 40.29 C 47.305 40.287 47.314 40.284 47.324 40.28 L 121.62 10.226 C 121.854 10.131 122.075 10.376 121.919 10.555 L 79.142 59.61 C 78.986 59.79 79.207 60.034 79.441 59.94 L 106.118 49.149 C 106.189 49.121 106.24 49.064 106.256 48.997 L 110.797 30.132 C 110.821 30.032 110.921 29.961 111.038 29.961 L 150.22 29.961 C 150.377 29.961 150.494 30.088 150.461 30.223 L 148.611 37.907 C 148.587 38.007 148.486 38.079 148.37 38.079 L 120.742 38.079 C 120.626 38.079 120.525 38.15 120.501 38.25 L 119.356 43.01 C 119.323 43.145 119.44 43.272 119.597 43.272 L 137.433 43.272 C 137.589 43.272 137.706 43.399 137.673 43.534 L 135.842 51.141 C 135.818 51.241 135.718 51.312 135.601 51.312 L 117.556 51.312 C 117.44 51.312 117.34 51.384 117.316 51.484 L 116.17 56.243 C 116.137 56.378 116.254 56.506 116.411 56.506 L 143.83 56.506 C 143.987 56.505 144.104 56.633 144.071 56.768 L 142.221 64.452 C 142.197 64.552 142.097 64.623 141.981 64.623 L 102.798 64.623 C 102.641 64.624 102.524 64.496 102.557 64.361 L 104.066 58.097 C 104.106 57.934 103.93 57.794 103.75 57.845 C 103.74 57.848 103.731 57.851 103.721 57.855 L 29.324 87.945 C 29.087 88.041 28.863 87.794 29.022 87.612 L 71.79 38.564 C 71.946 38.385 71.725 38.14 71.492 38.235 L 44.93 48.978 C 44.859 49.007 44.807 49.063 44.792 49.131 L 44.792 49.131 Z" id="path79" style="fill-opacity: 1; stroke: rgb(0, 0, 0); stroke-width: 0.412024; stroke-miterlimit: 4; stroke-dasharray: none; stroke-opacity: 1; fill: rgb(255, 255, 255);"/>
  <path d="M 239.992 64.353 L 241.059 59.92 C 241.069 59.876 241.095 59.836 241.132 59.805 L 255.921 47.417 C 253.552 43.235 250.104 38.855 247.193 34.739 C 247.158 34.69 247.147 34.631 247.16 34.575 L 248.228 30.139 C 248.254 30.035 248.357 29.962 248.477 29.961 L 259.934 29.961 C 260.021 29.962 260.102 30.001 260.149 30.066 L 266.146 38.485 C 266.231 38.604 266.42 38.625 266.536 38.528 L 276.689 30.023 C 276.736 29.984 276.799 29.962 276.864 29.961 L 288.252 29.961 C 288.413 29.962 288.534 30.092 288.501 30.231 L 287.45 34.596 C 287.44 34.64 287.414 34.68 287.377 34.711 L 272.572 47.167 C 274.945 51.327 278.4 55.684 281.316 59.777 C 281.351 59.826 281.363 59.885 281.35 59.941 L 280.265 64.446 C 280.24 64.549 280.136 64.623 280.016 64.623 L 268.56 64.623 C 268.472 64.623 268.391 64.583 268.344 64.518 L 262.347 56.1 C 262.262 55.98 262.074 55.959 261.957 56.056 L 251.804 64.561 C 251.757 64.6 251.694 64.622 251.629 64.623 L 240.241 64.623 C 240.079 64.623 239.959 64.492 239.992 64.353 L 239.992 64.353 Z" id="path104" style="fill-opacity: 1; stroke: rgb(0, 0, 0); stroke-width: 0.412024; stroke-miterlimit: 4; stroke-dasharray: none; stroke-opacity: 1; fill: rgb(255, 255, 255);"/>
  <g id="g108" style="fill:#696969" transform="matrix(0.878313, 0, 0, 0.773136, 0.863696, 10.203232)">
    <path d="m 334.54,26.882 h -2.738 l 0.375,-1.575 h 7.101 l -0.375,1.575 h -2.738 l -1.147,5.551 h -1.625 z m 11.175,0.78 -2.246,1.871 h -0.265 l -1.545,-1.871 -0.849,4.778 h -1.739 l 1.256,-7.125 h 1.55 l 1.854,1.843 2.602,-1.843 h 1.536 l -1.256,7.125 h -1.772 z" id="path106" style="fill: rgb(255, 255, 255);"/>
  </g>
</svg>