<?xml version="1.0" encoding="UTF-8" standalone="no"?>
<svg
   height="183.47061"
   viewBox="0 0 566.9295 183.47061"
   width="566.9295"
   version="1.1"
   id="svg3183"
   sodipodi:docname="n64dd.svg"
   inkscape:version="1.2.1 (9c6d41e410, 2022-07-14)"
   xmlns:inkscape="http://www.inkscape.org/namespaces/inkscape"
   xmlns:sodipodi="http://sodipodi.sourceforge.net/DTD/sodipodi-0.dtd"
   xmlns="http://www.w3.org/2000/svg"
   xmlns:svg="http://www.w3.org/2000/svg">
  <defs
     id="defs3187" />
  <sodipodi:namedview
     id="namedview3185"
     pagecolor="#ffffff"
     bordercolor="#000000"
     borderopacity="0.25"
     inkscape:showpageshadow="2"
     inkscape:pageopacity="0.0"
     inkscape:pagecheckerboard="0"
     inkscape:deskcolor="#d1d1d1"
     showgrid="false"
     inkscape:zoom="2.1343042"
     inkscape:cx="283.46475"
     inkscape:cy="91.833209"
     inkscape:window-width="2560"
     inkscape:window-height="1377"
     inkscape:window-x="-8"
     inkscape:window-y="-8"
     inkscape:window-maximized="1"
     inkscape:current-layer="svg3183" />
  <path
     d="m 115.7434,57.289743 5.59291,-6.07632 V 9.9065781 L 94.856566,19.85062 72.97495,57.666168 94.856566,49.545379 Z"
     fill="#1747ce"
     id="path3105"
     style="stroke-width:0.555557" />
  <path
     d="M 162.83364,45.258415 189.70945,35.219821 V 144.79161 l -26.87581,10.93059 -39.52066,-49.94856 v 66.0385 L 94.856566,183.47061 V 70.65729 l 28.456414,-10.554172 39.52066,54.704722 z"
     fill="#1747ce"
     id="path3107"
     style="stroke-width:0.555557" />
  <path
     d="M 26.875812,155.7222 52.091805,144.90935 26.875812,97.499425 Z"
     fill="#1747ce"
     id="path3109"
     style="stroke-width:0.555557" />
  <path
     d="M 72.97495,57.666168 94.856566,19.85062 68.376826,9.874466 53.751624,35.219821 66.400149,60.101334 Z"
     fill="#069330"
     id="path3111"
     style="stroke-width:0.555557" />
  <path
     d="M 162.83364,45.258415 V 114.80784 L 123.31298,60.103118 115.7434,57.289743 135.96703,35.219821 Z"
     fill="#069330"
     id="path3113"
     style="stroke-width:0.555557" />
  <path
     d="M 94.856566,70.65729 66.400149,60.101334 V 117.37324 L 26.875812,45.258415 0,35.219821 V 144.79161 L 26.875812,155.7222 V 97.499425 l 39.524337,74.312715 28.456417,11.65847 z"
     fill="#069330"
     id="path3115"
     style="stroke-width:0.555557" />
  <path
     d="M 66.400149,117.37324 26.875812,45.258415 53.751624,35.219821 66.400149,60.101334 Z"
     fill="#cc130e"
     id="path3117"
     style="stroke-width:0.555557" />
  <path
     d="m 123.31298,105.77364 v 27.28813 l 8.07435,10.96093 31.44631,11.6995 z"
     fill="#cc130e"
     id="path3119"
     style="stroke-width:0.555557" />
  <path
     d="M 94.856566,70.65729 66.400149,60.101334 94.856566,49.545379 123.31298,60.101334 Z"
     id="path3121"
     style="fill:#ffc001;stroke-width:0.555557" />
  <path
     d="M 162.83364,25.206202 189.70945,35.219821 162.83364,45.258415 135.95782,35.219821 Z"
     id="path3123"
     style="fill:#ffc001;stroke-width:0.555557" />
  <path
     d="M 26.875812,25.206202 53.751624,35.219821 26.875812,45.258415 0,35.219821 Z"
     id="path3125"
     style="fill:#ffc001;stroke-width:0.555557" />
  <path
     d="M 94.856566,0 68.376826,9.874466 94.856566,19.85062 121.33631,9.9065781 Z"
     id="path3127"
     style="fill:#ffc001;stroke-width:0.555557" />
  <path
     d="m 221.87181,23.247853 h 8.07606 V 5.8655895 h -5.46401 v 9.9671725 h -0.0472 l -3.60263,-9.9671725 h -8.0753 V 23.247853 h 5.46098 V 13.214445 h 0.0491 z"
     id="path3133"
     style="fill:#1747ce;stroke-width:2" />
  <path
     d="m 252.33846,23.247853 h 8.07531 V 5.8655895 h -5.46023 v 9.9671725 h -0.0495 l -3.603,-9.9671725 H 243.2265 V 23.247853 h 5.46325 V 13.214445 h 0.0472 z"
     id="path3135"
     style="fill:#1747ce;stroke-width:2" />
  <path
     d="m 304.80016,23.247853 h 8.07682 V 5.8655895 h -5.46249 v 9.9671725 h -0.0487 l -3.60262,-9.9671725 h -8.07569 V 23.247853 h 5.46174 V 13.214445 h 0.048 z"
     id="path3137"
     style="fill:#1747ce;stroke-width:2" />
  <path
     d="m 233.24675,5.8655895 h 6.73603 V 23.247853 h -6.73603 z"
     id="path3139"
     style="fill:#1747ce;stroke-width:2" />
  <path
     d="m 266.64809,10.587344 h -4.28038 V 5.8655895 h 15.30964 v 4.7217545 h -4.29512 v 12.660509 h -6.73414 z"
     id="path3141"
     style="fill:#1747ce;stroke-width:2" />
  <path
     d="m 286.29554,18.682722 h 6.90528 v 4.559276 h -13.5344 V 5.8608323 h 13.32095 v 4.5976997 h -6.69183 v 1.817636 h 6.16141 v 4.456447 h -6.16141 z"
     id="path3143"
     style="fill:#1747ce;stroke-width:2" />
  <path
     d="m 315.77578,5.8655895 h 7.9801 c 6.8063,0 8.97256,3.7315146 8.97256,8.8832515 0,5.248712 -3.34271,8.499378 -8.56984,8.499378 h -8.38282 z m 6.5936,13.4326475 h 0.6566 c 1.08313,0 1.80925,-0.321664 2.23351,-1.019882 0.4473,-0.722736 0.49717,-2.039031 0.49717,-3.722366 0,-1.684798 -0.051,-2.998532 -0.49717,-3.722366 -0.42426,-0.69895 -1.15038,-1.0206129 -2.23351,-1.0206129 h -0.6566 z"
     id="path3145"
     style="fill:#1747ce;stroke-width:2" />
  <path
     d="m 343.28697,5.4096253 c 5.8637,0 8.78139,3.7300508 8.78139,9.1467297 0,5.418143 -2.91844,9.149292 -8.78139,9.149292 -5.86447,0 -8.78216,-3.731149 -8.78216,-9.149292 0,-5.4166789 2.91656,-9.1467297 8.78216,-9.1467297 z m 0,13.8908077 c 1.03439,0 1.81377,-0.492559 1.81377,-4.744444 0,-4.156007 -0.73253,-4.7429789 -1.81377,-4.7429789 -1.08238,0 -1.81378,0.5869719 -1.81378,4.7429789 0,4.252251 0.77749,4.744444 1.81378,4.744444 z"
     id="path3147"
     style="fill:#1747ce;stroke-width:2" />
  <path
     d="m 212.75871,23.247853 h 5.46098 V 13.214445 h 0.0491 l 3.603,10.033408 h 8.07606 V 5.8655895 h -5.46401 v 9.9671725 h -0.0472 l -3.60263,-9.9671725 h -8.0753 z"
     id="path3149"
     style="fill:#1747ce;stroke-width:2" />
  <path
     d="m 243.2265,23.247853 h 5.46325 V 13.214445 h 0.0472 l 3.60149,10.033408 h 8.07531 V 5.8655895 h -5.46023 v 9.9671725 h -0.0495 l -3.603,-9.9671725 h -8.07455 z"
     id="path3151"
     style="fill:#1747ce;stroke-width:2" />
  <path
     d="m 295.68744,23.247853 h 5.46174 V 13.214445 h 0.048 l 3.603,10.033408 H 312.877 V 5.8655895 h -5.46249 v 9.9671725 h -0.0487 l -3.60262,-9.9671725 h -8.07569 z"
     id="path3153"
     style="fill:#1747ce;stroke-width:2" />
  <path
     d="m 233.24675,5.8655895 h 6.73603 V 23.247853 h -6.73603 z"
     id="path3155"
     style="fill:#1747ce;stroke-width:2" />
  <path
     d="m 277.67735,10.587344 h -4.29512 v 12.660509 h -6.73414 V 10.587344 h -4.28038 V 5.8655895 h 15.30964 z"
     id="path3157"
     style="fill:#1747ce;stroke-width:2" />
  <path
     d="m 286.29554,18.682722 h 6.90528 v 4.559276 h -13.5344 V 5.8608323 h 13.32095 v 4.5976997 h -6.69183 v 1.817636 h 6.16141 v 4.456447 h -6.16141 z"
     id="path3159"
     style="fill:#1747ce;stroke-width:2" />
  <path
     d="m 364.11539,3.5542974 c -0.35852,-0.030373 -0.70685,-0.016101 -1.19307,0.00512 -2.84137,0.127348 -3.99061,1.3001933 -4.38012,2.6252707 h 0.0688 c 0.70761,-0.5990477 1.5822,-0.8786277 2.75373,-0.8786277 2.25353,0 4.31212,1.5874581 4.31212,4.5654973 0,2.8495933 -2.26147,5.0690343 -5.29665,5.0690343 -3.99855,0 -5.7379,-2.957912 -5.7379,-6.1295354 0,-2.5766003 0.94372,-4.7587148 2.49267,-6.1661292 1.47414,-1.3228818 3.37519,-1.99109257 5.70164,-2.04269045 0.61617,-0.0343986 0.98225,0 1.27882,0.0259819 z m -3.78585,8.5835446 c 0.92143,0 1.48019,-0.911562 1.48019,-2.075991 -0.008,-0.9829213 -0.47224,-2.0540347 -1.70762,-2.0540347 -0.75483,0 -1.34305,0.4632831 -1.56519,1.022809 -0.0865,0.171627 -0.11863,0.4160765 -0.11863,0.8306892 0.079,1.1106355 0.63167,2.2768935 1.8882,2.2768935 z"
     fill="#cc130e"
     id="path3163"
     style="stroke-width:2" />
  <path
     d="m 372.72225,14.706392 v -3.119293 h -5.98649 V 9.0946652 l 4.80664,-8.29627993 h 4.78285 V 8.7294547 h 1.52137 v 2.8576443 h -1.52137 v 3.119293 z m 0,-5.9769373 V 6.3394849 c 0,-0.8833849 0.0548,-1.8011684 0.10125,-2.7683541 h -0.0782 c -0.44504,0.9386422 -0.83227,1.8322735 -1.33851,2.8020208 l -1.17607,2.3149516 -0.0125,0.042083 z"
     fill="#cc130e"
     id="path3165"
     style="stroke-width:2" />
  <path
     d="m 285.19318,34.65828 c -2.35615,-0.165393 -5.38548,-0.496177 -10.26609,-0.165393 -18.3443,0.330785 -33.32268,5.623336 -45.10343,15.712262 -12.11735,10.915887 -19.69069,27.785895 -19.69069,47.632965 0,24.643436 13.80031,47.467566 45.44003,47.467566 24.0664,0 41.90582,-17.20079 41.90582,-39.19795 0,-22.989527 -16.32476,-35.228552 -34.16418,-35.228552 -9.2563,0 -16.15646,2.150099 -21.71023,6.781081 h -0.50489 c 3.02933,-10.254318 12.11734,-19.35089 34.50077,-20.343244 3.87081,-0.165392 6.73185,-0.165392 9.59289,0 z m -30.12506,88.98102 c -9.92949,0 -14.3052,-8.93118 -14.97838,-17.69697 0,-3.14245 0.1683,-4.96177 0.84148,-6.2849 1.85127,-4.465594 6.56356,-7.938833 12.45394,-7.938833 9.76118,0 13.46371,8.269612 13.46371,15.877653 0,9.09658 -4.37571,16.04305 -11.61245,16.04305 z"
     id="path3169"
     style="fill:#fdfffb;stroke-width:1.00157" />
  <path
     d="m 362.82516,142.85075 v -24.26292 h 12.11733 V 96.319117 H 362.82516 V 34.830885 H 324.7902 l -38.03495,64.313368 v 19.443577 h 47.45955 v 24.26292 z m -48.46932,-46.531633 0.16829,-0.332365 9.25629,-17.947921 c 4.03912,-7.478299 7.06845,-14.458044 10.60267,-21.770158 h 0.67318 c -0.33658,7.644483 -0.84147,14.624228 -0.84147,21.603973 v 18.446471 z"
     id="path3171"
     style="fill:#fdfffb;stroke-width:1.00157" />
  <path
     d="M 505.43994,119.28733 V 59.118446 c 1.26928,-0.154676 2.53856,-0.154676 3.66681,-0.154676 12.69281,0 17.2058,8.816521 17.2058,29.697754 0,21.499936 -4.79506,30.780486 -18.47509,30.780486 -0.70515,0 -1.55133,-0.15468 -2.39752,-0.15468 z m -39.20667,25.98553 h 45.6941 c 36.52707,0 55.00216,-19.02512 55.00216,-56.301983 0,-37.586221 -17.91096,-55.219263 -55.28422,-55.219263 h -45.41204 z"
     id="path3173"
     style="fill:#fdfffb;stroke-width:1.00157" />
  <path
     d="M 413.44007,119.28733 V 59.118446 c 1.26927,-0.154676 2.53855,-0.154676 3.6668,-0.154676 12.69281,0 17.2058,8.816521 17.2058,29.697754 0,21.499936 -4.79505,30.780486 -18.47508,30.780486 -0.70515,0 -1.55134,-0.15468 -2.39752,-0.15468 z m -39.20667,25.98553 h 45.69409 c 36.52708,0 55.00216,-19.02512 55.00216,-56.301983 0,-37.586221 -17.91096,-55.219263 -55.28422,-55.219263 H 374.2334 Z"
     id="path3175"
     style="fill:#fdfffb;stroke-width:1.00157" />
</svg>
