<?xml version="1.0" encoding="utf-8"?>
<svg viewBox="0 0 347.869 102.59" xmlns="http://www.w3.org/2000/svg" xmlns:xlink="http://www.w3.org/1999/xlink">
  <defs>
    <linearGradient y2="25.554" x2="299.872" y1="70.387" x1="299.872" gradientUnits="userSpaceOnUse" id="d">
      <stop style="stop-color:#a6a6a6;stop-opacity:1" stop-color="#d9d9d9" offset="0"/>
      <stop stop-color="#d9d9d9" offset="1" style="stop-color:#efefef;stop-opacity:1"/>
    </linearGradient>
    <linearGradient y2="25.554" x2="299.872" y1="70.387" x1="299.872" gradientUnits="userSpaceOnUse" id="e">
      <stop style="stop-color:#a6a6a6;stop-opacity:1" stop-color="#d9d9d9" offset="0"/>
      <stop stop-color="#d9d9d9" offset="1" style="stop-color:#f2f2f2;stop-opacity:1"/>
    </linearGradient>
    <linearGradient y2="25.554" x2="299.872" y1="70.387" x1="299.872" gradientUnits="userSpaceOnUse" id="a">
      <stop style="stop-color:#a6a6a6;stop-opacity:1" stop-color="#d9d9d9" offset="0"/>
      <stop stop-color="#d9d9d9" offset="1" style="stop-color:#efefef;stop-opacity:1"/>
    </linearGradient>
    <linearGradient id="c" gradientUnits="userSpaceOnUse" x1="299.872" y1="70.387" x2="299.872" y2="25.554">
      <stop offset="0" stop-color="#d9d9d9"/>
      <stop offset="1" stop-color="#d9d9d9" style="stop-color:#e5e5e5;stop-opacity:1"/>
    </linearGradient>
    <linearGradient id="i" x1="62.452" y1="99.212" x2="129.927" y2="6.194" gradientUnits="userSpaceOnUse" gradientTransform="matrix(0.87831, 0, 0, 0.77314, 0.578606, 10.772336)" xlink:href="#a"/>
    <linearGradient id="g" x1="227.409" y1="69.675" x2="262.644" y2="27.277" gradientUnits="userSpaceOnUse" gradientTransform="matrix(0.87831, 0, 0, 0.77314, 0.578606, 10.772336)" xlink:href="#c"/>
    <linearGradient id="k" x1="277.514" y1="72.777" x2="321.887" y2="26.268" gradientUnits="userSpaceOnUse" gradientTransform="matrix(0.87831, 0, 0, 0.77314, 0.578606, 10.772336)" xlink:href="#d"/>
    <linearGradient id="h" gradientUnits="userSpaceOnUse" x1="166.361" y1="92.068" x2="212.349" y2="23.511" gradientTransform="matrix(0.87831, 0, 0, 0.77314, 0.578606, 10.772336)" xlink:href="#e"/>
  </defs>
  <path d="M 245.331 33.622 L 205.843 33.622 C 205.725 33.623 205.624 33.695 205.599 33.796 L 197.361 68.021 C 197.328 68.157 197.446 68.286 197.604 68.285 L 237.092 68.285 C 237.21 68.285 237.311 68.213 237.335 68.111 L 245.574 33.887 C 245.607 33.751 245.489 33.622 245.331 33.622 L 245.331 33.622 Z M 227.622 59.996 C 227.598 60.096 227.498 60.167 227.382 60.167 L 211.221 60.167 C 211.066 60.167 210.949 60.041 210.982 59.907 L 215.313 41.913 C 215.337 41.813 215.437 41.742 215.553 41.741 L 231.714 41.741 C 231.871 41.741 231.986 41.868 231.954 42.002 L 227.622 59.996 Z M 198.439 37.497 L 193.971 33.685 C 193.923 33.645 193.86 33.622 193.794 33.622 L 159.791 33.622 C 159.671 33.622 159.568 33.696 159.543 33.799 L 151.307 68.016 C 151.273 68.155 151.393 68.286 151.554 68.285 L 185.471 68.285 C 185.524 68.285 185.575 68.271 185.618 68.244 L 192.063 64.199 C 192.115 64.167 192.151 64.119 192.164 64.064 L 194.433 54.637 C 194.452 54.562 194.425 54.484 194.362 54.431 L 189.716 50.467 C 189.603 50.37 189.617 50.207 189.745 50.125 L 196.467 45.908 C 196.519 45.875 196.555 45.827 196.568 45.772 L 198.511 37.702 C 198.528 37.627 198.501 37.55 198.439 37.497 L 198.439 37.497 Z M 181.383 59.99 C 181.358 60.093 181.255 60.166 181.135 60.167 L 164.681 60.167 C 164.519 60.167 164.399 60.036 164.433 59.897 L 165.58 55.15 C 165.605 55.047 165.708 54.973 165.828 54.973 L 182.275 54.973 C 182.436 54.973 182.556 55.104 182.523 55.243 L 181.383 59.99 Z M 184.568 46.757 C 184.543 46.86 184.44 46.933 184.321 46.934 L 167.866 46.934 C 167.705 46.933 167.585 46.803 167.619 46.664 L 168.766 41.917 C 168.791 41.814 168.894 41.74 169.013 41.74 L 185.461 41.74 C 185.621 41.74 185.742 41.871 185.708 42.009 L 184.568 46.757 Z M 47.379 52.793 L 43.691 68.113 C 43.667 68.213 43.566 68.285 43.45 68.285 L 3.699 68.285 C 3.542 68.285 3.425 68.157 3.458 68.023 L 11.698 33.794 C 11.722 33.694 11.822 33.622 11.938 33.622 L 23.218 33.622 C 23.375 33.622 23.492 33.75 23.459 33.885 L 17.197 59.901 C 17.164 60.036 17.28 60.164 17.437 60.164 L 33.621 60.164 C 33.737 60.164 33.838 60.092 33.862 59.992 L 40.168 33.796 C 40.192 33.696 40.292 33.624 40.409 33.624 L 51.689 33.624 C 51.846 33.624 51.962 33.751 51.929 33.886 L 49.567 43.7 C 49.527 43.863 49.702 44.003 49.882 43.952 C 49.892 43.949 49.902 43.946 49.911 43.942 L 124.207 13.888 C 124.441 13.794 124.662 14.038 124.506 14.217 L 81.73 63.273 C 81.574 63.452 81.795 63.697 82.029 63.602 L 108.706 52.812 C 108.777 52.783 108.828 52.727 108.844 52.659 L 113.385 33.795 C 113.409 33.695 113.509 33.623 113.625 33.623 L 152.808 33.623 C 152.964 33.623 153.081 33.75 153.048 33.885 L 151.199 41.57 C 151.175 41.67 151.074 41.741 150.958 41.741 L 123.33 41.741 C 123.214 41.741 123.113 41.813 123.089 41.913 L 121.944 46.672 C 121.911 46.807 122.028 46.935 122.185 46.934 L 140.02 46.934 C 140.177 46.934 140.294 47.062 140.261 47.196 L 138.43 54.803 C 138.406 54.903 138.305 54.975 138.189 54.975 L 120.144 54.975 C 120.028 54.975 119.928 55.047 119.904 55.147 L 118.758 59.906 C 118.725 60.041 118.842 60.168 118.999 60.168 L 146.418 60.168 C 146.575 60.168 146.692 60.295 146.659 60.43 L 144.809 68.115 C 144.785 68.215 144.684 68.286 144.568 68.286 L 105.386 68.286 C 105.229 68.286 105.112 68.159 105.145 68.024 L 106.653 61.759 C 106.693 61.596 106.518 61.456 106.338 61.507 C 106.328 61.51 106.318 61.513 106.309 61.517 L 31.891 91.616 C 31.66 91.71 31.44 91.468 31.596 91.291 L 74.378 42.227 C 74.534 42.047 74.313 41.803 74.079 41.897 L 47.518 52.641 C 47.447 52.67 47.395 52.726 47.379 52.793 Z M 242.579 68.016 L 243.646 63.583 C 243.657 63.539 243.682 63.499 243.719 63.468 L 258.508 51.08 C 258.595 51.007 258.612 50.89 258.548 50.8 L 249.78 38.401 C 249.746 38.352 249.734 38.294 249.748 38.237 L 250.816 33.801 C 250.841 33.698 250.944 33.624 251.064 33.624 L 262.521 33.624 C 262.608 33.624 262.689 33.663 262.736 33.728 L 268.733 42.147 C 268.818 42.267 269.007 42.288 269.123 42.19 L 279.276 33.686 C 279.324 33.646 279.386 33.624 279.451 33.624 L 290.839 33.624 C 291.001 33.624 291.121 33.755 291.088 33.894 L 290.037 38.258 C 290.027 38.302 290.002 38.342 289.965 38.373 L 275.156 50.828 C 275.069 50.901 275.053 51.018 275.117 51.108 L 283.901 63.438 C 283.936 63.487 283.948 63.546 283.934 63.602 L 282.849 68.107 C 282.824 68.21 282.721 68.284 282.601 68.284 L 271.144 68.284 C 271.057 68.284 270.976 68.244 270.929 68.179 L 264.932 59.761 C 264.847 59.641 264.658 59.62 264.542 59.717 L 254.389 68.222 C 254.341 68.262 254.279 68.284 254.214 68.284 L 242.826 68.284 C 242.665 68.284 242.545 68.154 242.579 68.016 L 242.579 68.016 Z" style="fill:#040006"/>
  <path d="M 242.459 30.529 L 202.971 30.529 C 202.853 30.53 202.752 30.602 202.728 30.703 L 194.489 64.927 C 194.455 65.064 194.573 65.192 194.732 65.192 L 234.22 65.192 C 234.337 65.192 234.439 65.12 234.464 65.018 L 242.702 30.793 C 242.734 30.657 242.616 30.53 242.459 30.529 L 242.459 30.529 Z M 224.75 56.902 C 224.726 57.002 224.626 57.074 224.51 57.074 L 208.35 57.074 C 208.194 57.074 208.078 56.949 208.11 56.814 L 212.442 38.819 C 212.466 38.72 212.566 38.649 212.682 38.648 L 228.842 38.648 C 228.999 38.648 229.115 38.774 229.082 38.908 L 224.75 56.902 Z" style="fill:url(#g);fill-opacity:1;stroke:#000;stroke-width:.41202405;stroke-miterlimit:4;stroke-dasharray:none;stroke-opacity:1"/>
  <path d="M 195.567 34.403 L 191.099 30.592 C 191.051 30.552 190.988 30.529 190.922 30.529 L 156.919 30.529 C 156.799 30.53 156.696 30.603 156.672 30.706 L 148.435 64.923 C 148.401 65.062 148.521 65.192 148.682 65.192 L 182.599 65.192 C 182.651 65.192 182.702 65.178 182.746 65.15 L 189.191 61.106 C 189.243 61.074 189.279 61.025 189.292 60.97 L 191.562 51.544 C 191.58 51.469 191.553 51.391 191.491 51.337 L 186.844 47.373 C 186.731 47.276 186.746 47.113 186.874 47.032 L 193.595 42.814 C 193.646 42.782 193.682 42.734 193.696 42.679 L 195.639 34.609 C 195.657 34.534 195.629 34.456 195.567 34.403 L 195.567 34.403 Z M 178.511 56.896 C 178.486 56.999 178.382 57.073 178.263 57.073 L 161.809 57.073 C 161.647 57.074 161.527 56.942 161.561 56.803 L 162.708 52.056 C 162.733 51.953 162.836 51.88 162.956 51.88 L 179.403 51.88 C 179.563 51.88 179.684 52.01 179.651 52.149 L 178.511 56.896 Z M 181.696 43.663 C 181.671 43.766 181.568 43.84 181.449 43.84 L 164.993 43.84 C 164.831 43.84 164.712 43.709 164.746 43.57 L 165.893 38.823 C 165.918 38.721 166.021 38.647 166.14 38.647 L 182.588 38.647 C 182.748 38.647 182.868 38.777 182.835 38.916 L 181.696 43.663 Z" style="fill:url(#h);fill-opacity:1;stroke:#000;stroke-width:.41202405;stroke-miterlimit:4;stroke-dasharray:none;stroke-opacity:1"/>
  <path d="M 44.507 49.7 L 40.819 65.02 C 40.794 65.119 40.694 65.19 40.579 65.19 L 0.826 65.19 C 0.669 65.19 0.553 65.064 0.586 64.929 L 8.825 30.701 C 8.848 30.601 8.948 30.53 9.065 30.529 L 20.345 30.529 C 20.502 30.528 20.62 30.656 20.587 30.791 L 14.323 56.808 C 14.289 56.943 14.406 57.07 14.563 57.07 L 30.748 57.07 C 30.864 57.07 30.965 56.999 30.989 56.898 L 37.295 30.702 C 37.318 30.602 37.419 30.53 37.536 30.53 L 48.816 30.53 C 48.973 30.53 49.09 30.658 49.056 30.793 L 46.694 40.607 C 46.653 40.77 46.827 40.91 47.008 40.86 C 47.018 40.857 47.029 40.853 47.039 40.849 L 121.335 10.795 C 121.569 10.7 121.79 10.945 121.634 11.124 L 78.857 60.179 C 78.701 60.359 78.922 60.603 79.156 60.509 L 105.833 49.719 C 105.904 49.691 105.955 49.634 105.971 49.566 L 110.511 30.701 C 110.535 30.601 110.635 30.53 110.752 30.53 L 149.935 30.53 C 150.091 30.531 150.208 30.658 150.175 30.792 L 148.325 38.476 C 148.301 38.576 148.201 38.648 148.085 38.648 L 120.457 38.648 C 120.341 38.649 120.241 38.72 120.217 38.819 L 119.071 43.579 C 119.037 43.714 119.154 43.841 119.311 43.841 L 137.147 43.841 C 137.304 43.841 137.421 43.968 137.388 44.103 L 135.557 51.71 C 135.532 51.81 135.432 51.881 135.317 51.881 L 117.271 51.881 C 117.154 51.882 117.054 51.953 117.031 52.053 L 115.885 56.813 C 115.851 56.948 115.968 57.075 116.125 57.075 L 143.545 57.075 C 143.701 57.076 143.818 57.203 143.785 57.337 L 141.935 65.021 C 141.91 65.121 141.81 65.192 141.695 65.192 L 102.513 65.192 C 102.356 65.192 102.239 65.065 102.273 64.93 L 103.78 58.666 C 103.82 58.504 103.645 58.364 103.465 58.414 C 103.455 58.417 103.445 58.42 103.436 58.424 L 29.038 88.514 C 28.801 88.61 28.578 88.363 28.736 88.181 L 71.506 39.132 C 71.662 38.952 71.441 38.708 71.207 38.802 L 44.645 49.548 C 44.573 49.577 44.522 49.634 44.507 49.701 L 44.507 49.7 Z" style="fill:url(#i);fill-opacity:1;stroke:#000;stroke-width:.41202405;stroke-miterlimit:4;stroke-dasharray:none;stroke-opacity:1"/>
  <path d="M 239.707 64.922 L 240.774 60.489 C 240.785 60.444 240.811 60.404 240.847 60.374 L 255.637 47.986 C 253.267 43.804 249.82 39.424 246.909 35.308 C 246.874 35.261 246.862 35.201 246.876 35.144 L 247.944 30.708 C 247.969 30.604 248.073 30.531 248.193 30.53 L 259.649 30.53 C 259.737 30.53 259.818 30.57 259.865 30.635 L 265.862 39.054 C 265.947 39.174 266.135 39.194 266.252 39.097 L 276.405 30.592 C 276.454 30.552 276.516 30.53 276.58 30.53 L 287.968 30.53 C 288.129 30.531 288.249 30.661 288.217 30.8 L 287.167 35.165 C 287.155 35.211 287.129 35.251 287.093 35.28 L 272.287 47.736 C 274.66 51.896 278.117 56.253 281.032 60.346 C 281.066 60.394 281.078 60.453 281.065 60.51 L 279.981 65.015 C 279.955 65.118 279.851 65.192 279.732 65.192 L 268.275 65.192 C 268.19 65.194 268.11 65.155 268.06 65.087 L 262.063 56.669 C 261.978 56.549 261.789 56.528 261.673 56.625 L 251.52 65.13 C 251.47 65.171 251.408 65.193 251.345 65.192 L 239.957 65.192 C 239.795 65.192 239.674 65.062 239.707 64.922 L 239.707 64.922 Z" style="fill:url(#k);fill-opacity:1;stroke:#000;stroke-width:.41202405;stroke-miterlimit:4;stroke-dasharray:none;stroke-opacity:1"/>
  <path d="M 294.408 31.556 L 292.004 31.556 L 292.333 30.338 L 298.57 30.338 L 298.241 31.556 L 295.836 31.556 L 294.828 35.848 L 293.401 35.848 L 294.408 31.556 Z M 304.224 32.159 L 302.251 33.605 L 302.018 33.605 L 300.661 32.159 L 299.915 35.853 L 298.388 35.853 L 299.491 30.344 L 300.853 30.344 L 302.481 31.769 L 304.766 30.344 L 306.115 30.344 L 305.012 35.853 L 303.456 35.853 L 304.224 32.159 Z" style="fill:#696969"/>
</svg>